{
  "asset": {
    "generator": "Khronos glTF Blender I/O v4.4.56",
    "version": "2.0"
  },
  "extensionsUsed": [
    "KHR_materials_specular",
    "KHR_materials_ior"
  ],
  "scene": 0,
  "scenes": [
    {
      "name": "Scene",
      "nodes": [
        0,
        1
      ]
    }
  ],
  "nodes": [
    {
      "mesh": 0,
      "name": "Plane.002",
      "rotation": [
        0.7071068286895752,
        0,
        0,
        0.7071068286895752
      ]
    },
    {
      "mesh": 1,
      "name": "Plane.005_Plane",
      "rotation": [
        0.7071068286895752,
        0,
        0,
        0.7071068286895752
      ]
    }
  ],
  "materials": [
    {
      "doubleSided": true,
      "extensions": {
        "KHR_materials_specular": {
          "specularTexture": {
            "index": 0
          }
        },
        "KHR_materials_ior": {
          "ior": 1
        }
      },
      "name": "Material.006",
      "pbrMetallicRoughness": {
        "baseColorTexture": {
          "index": 1
        },
        "metallicFactor": 0,
        "roughnessFactor": 0.6900347471237183
      }
    },
    {
      "doubleSided": true,
      "extensions": {
        "KHR_materials_specular": {
          "specularFactor": 0
        },
        "KHR_materials_ior": {
          "ior": 1
        }
      },
      "name": "Display",
      "pbrMetallicRoughness": {
        "baseColorTexture": {
          "index": 2
        },
        "metallicFactor": 0,
        "roughnessFactor": 0.6900347471237183
      }
    },
    {
      "doubleSided": true,
      "extensions": {
        "KHR_materials_specular": {
          "specularTexture": {
            "index": 3
          }
        },
        "KHR_materials_ior": {
          "ior": 1
        }
      },
      "name": "Material.006_Untitled.004",
      "pbrMetallicRoughness": {
        "metallicFactor": 0,
        "roughnessFactor": 0.6900347471237183
      }
    },
    {
      "doubleSided": true,
      "extensions": {
        "KHR_materials_specular": {
          "specularTexture": {
            "index": 4
          }
        },
        "KHR_materials_ior": {
          "ior": 1
        }
      },
      "name": "Material.006_NONE",
      "pbrMetallicRoughness": {
        "baseColorTexture": {
          "index": 5
        },
        "metallicFactor": 0,
        "roughnessFactor": 0.6900347471237183
      }
    },
    {
      "doubleSided": true,
      "extensions": {
        "KHR_materials_specular": {
          "specularTexture": {
            "index": 6
          }
        },
        "KHR_materials_ior": {
          "ior": 1
        }
      },
      "name": "KEY",
      "pbrMetallicRoughness": {
        "baseColorTexture": {
          "index": 7
        },
        "metallicFactor": 0,
        "roughnessFactor": 0.6900347471237183
      }
    },
    {
      "doubleSided": true,
      "name": "Material.010",
      "pbrMetallicRoughness": {
        "metallicFactor": 0,
        "roughnessFactor": 0.6900347471237183
      }
    },
    {
      "doubleSided": true,
      "name": "Material.011",
      "pbrMetallicRoughness": {
        "metallicFactor": 0,
        "roughnessFactor": 0.6900347471237183
      }
    },
    {
      "doubleSided": true,
      "name": "Material.011_NONE",
      "pbrMetallicRoughness": {
        "baseColorFactor": [
          0.6399999856948853,
          0.6399999856948853,
          0.6399999856948853,
          1
        ],
        "metallicFactor": 0,
        "roughnessFactor": 0.6900347471237183
      }
    }
  ],
  "meshes": [
    {
      "name": "Plane.002",
      "primitives": [
        {
          "attributes": {
            "POSITION": 0,
            "NORMAL": 1,
            "TEXCOORD_0": 2
          },
          "indices": 3,
          "material": 0
        },
        {
          "attributes": {
            "POSITION": 4,
            "NORMAL": 5,
            "TEXCOORD_0": 6
          },
          "indices": 7,
          "material": 1
        }
      ]
    },
    {
      "name": "Plane.005_Plane",
      "primitives": [
        {
          "attributes": {
            "POSITION": 8,
            "NORMAL": 9,
            "TEXCOORD_0": 10
          },
          "indices": 11,
          "material": 0
        },
        {
          "attributes": {
            "POSITION": 12,
            "NORMAL": 13,
            "TEXCOORD_0": 14
          },
          "indices": 15,
          "material": 2
        },
        {
          "attributes": {
            "POSITION": 16,
            "NORMAL": 17,
            "TEXCOORD_0": 18
          },
          "indices": 19,
          "material": 3
        },
        {
          "attributes": {
            "POSITION": 20,
            "NORMAL": 21,
            "TEXCOORD_0": 22
          },
          "indices": 23,
          "material": 4
        },
        {
          "attributes": {
            "POSITION": 24,
            "NORMAL": 25,
            "TEXCOORD_0": 26
          },
          "indices": 27,
          "material": 5
        },
        {
          "attributes": {
            "POSITION": 28,
            "NORMAL": 29,
            "TEXCOORD_0": 30
          },
          "indices": 31,
          "material": 6
        },
        {
          "attributes": {
            "POSITION": 32,
            "NORMAL": 33,
            "TEXCOORD_0": 34
          },
          "indices": 35,
          "material": 7
        }
      ]
    }
  ],
  "textures": [
    {
      "sampler": 0,
      "source": 0
    },
    {
      "sampler": 0,
      "source": 0
    },
    {
      "sampler": 0,
      "source": 1
    },
    {
      "sampler": 0,
      "source": 0
    },
    {
      "sampler": 0,
      "source": 0
    },
    {
      "sampler": 0,
      "source": 0
    },
    {
      "sampler": 0,
      "source": 0
    },
    {
      "sampler": 0,
      "source": 0
    }
  ],
  "images": [
    {
      "name": "Bake_Col_3",
      "uri": "laptop_img0.jpg"
    },
    {
      "name": "Desktop",
      "uri": "laptop_img1.png"
    }
  ],
  "accessors": [
    {
      "bufferView": 0,
      "componentType": 5126,
      "count": 2466,
      "max": [
        2.504251003265381,
        -1.3847169876098633,
        -0.1554660052061081
      ],
      "min": [
        -2.504251003265381,
        -3.2347030639648438,
        -3.143472909927368
      ],
      "type": "VEC3"
    },
    {
      "bufferView": 1,
      "componentType": 5126,
      "count": 2466,
      "type": "VEC3"
    },
    {
      "bufferView": 2,
      "componentType": 5126,
      "count": 2466,
      "type": "VEC2"
    },
    {
      "bufferView": 3,
      "componentType": 5123,
      "count": 11328,
      "type": "SCALAR"
    },
    {
      "bufferView": 4,
      "componentType": 5126,
      "count": 9,
      "max": [
        2.331186056137085,
        -1.6572870016098022,
        -0.4299040138721466
      ],
      "min": [
        -2.331186056137085,
        -3.1121129989624023,
        -2.949737071990967
      ],
      "type": "VEC3"
    },
    {
      "bufferView": 5,
      "componentType": 5126,
      "count": 9,
      "type": "VEC3"
    },
    {
      "bufferView": 6,
      "componentType": 5126,
      "count": 9,
      "type": "VEC2"
    },
    {
      "bufferView": 7,
      "componentType": 5123,
      "count": 24,
      "type": "SCALAR"
    },
    {
      "bufferView": 8,
      "componentType": 5126,
      "count": 16422,
      "max": [
        2.509735107421875,
        1.893362045288086,
        -0.020037999376654625
      ],
      "min": [
        -2.5064470767974854,
        -1.5160280466079712,
        -0.30458900332450867
      ],
      "type": "VEC3"
    },
    {
      "bufferView": 9,
      "componentType": 5126,
      "count": 16422,
      "type": "VEC3"
    },
    {
      "bufferView": 10,
      "componentType": 5126,
      "count": 16422,
      "type": "VEC2"
    },
    {
      "bufferView": 11,
      "componentType": 5123,
      "count": 72948,
      "type": "SCALAR"
    },
    {
      "bufferView": 12,
      "componentType": 5126,
      "count": 69650,
      "max": [
        2.126101016998291,
        0.7125930190086365,
        -0.22543799877166748
      ],
      "min": [
        -2.1651558876037598,
        -0.8035330176353455,
        -0.2710709869861603
      ],
      "type": "VEC3"
    },
    {
      "bufferView": 13,
      "componentType": 5126,
      "count": 69650,
      "type": "VEC3"
    },
    {
      "bufferView": 14,
      "componentType": 5126,
      "count": 69650,
      "type": "VEC2"
    },
    {
      "bufferView": 15,
      "componentType": 5125,
      "count": 169572,
      "type": "SCALAR"
    },
    {
      "bufferView": 16,
      "componentType": 5126,
      "count": 10324,
      "max": [
        2.0601749420166016,
        0.5340849757194519,
        -0.22543799877166748
      ],
      "min": [
        -2.0611910820007324,
        -0.7550650238990784,
        -0.22543799877166748
      ],
      "type": "VEC3"
    },
    {
      "bufferView": 17,
      "componentType": 5126,
      "count": 10324,
      "type": "VEC3"
    },
    {
      "bufferView": 18,
      "componentType": 5126,
      "count": 10324,
      "type": "VEC2"
    },
    {
      "bufferView": 19,
      "componentType": 5123,
      "count": 45108,
      "type": "SCALAR"
    },
    {
      "bufferView": 20,
      "componentType": 5126,
      "count": 13128,
      "max": [
        2.0598700046539307,
        0.5337619781494141,
        -0.26757198572158813
      ],
      "min": [
        -2.0608859062194824,
        -0.7547420263290405,
        -0.2928690016269684
      ],
      "type": "VEC3"
    },
    {
      "bufferView": 21,
      "componentType": 5126,
      "count": 13128,
      "type": "VEC3"
    },
    {
      "bufferView": 22,
      "componentType": 5126,
      "count": 13128,
      "type": "VEC2"
    },
    {
      "bufferView": 23,
      "componentType": 5123,
      "count": 55176,
      "type": "SCALAR"
    },
    {
      "bufferView": 24,
      "componentType": 5126,
      "count": 7456,
      "max": [
        2.0605459213256836,
        0.5344769954681396,
        -0.259086012840271
      ],
      "min": [
        -2.0615620613098145,
        -0.7554579973220825,
        -0.2762340009212494
      ],
      "type": "VEC3"
    },
    {
      "bufferView": 25,
      "componentType": 5126,
      "count": 7456,
      "type": "VEC3"
    },
    {
      "bufferView": 26,
      "componentType": 5126,
      "count": 7456,
      "type": "VEC2"
    },
    {
      "bufferView": 27,
      "componentType": 5123,
      "count": 29856,
      "type": "SCALAR"
    },
    {
      "bufferView": 28,
      "componentType": 5126,
      "count": 2714,
      "max": [
        2.5058228969573975,
        0.5132700204849243,
        -0.2253050059080124
      ],
      "min": [
        -2.043945074081421,
        -1.1728310585021973,
        -0.24719899892807007
      ],
      "type": "VEC3"
    },
    {
      "bufferView": 29,
      "componentType": 5126,
      "count": 2714,
      "type": "VEC3"
    },
    {
      "bufferView": 30,
      "componentType": 5126,
      "count": 2714,
      "type": "VEC2"
    },
    {
      "bufferView": 31,
      "componentType": 5123,
      "count": 13080,
      "type": "SCALAR"
    },
    {
      "bufferView": 32,
      "componentType": 5126,
      "count": 984,
      "max": [
        1.7786099910736084,
        0.8287050127983093,
        -0.2822999954223633
      ],
      "min": [
        -2.082911968231201,
        -1.1641349792480469,
        -0.30406999588012695
      ],
      "type": "VEC3"
    },
    {
      "bufferView": 33,
      "componentType": 5126,
      "count": 984,
      "type": "VEC3"
    },
    {
      "bufferView": 34,
      "componentType": 5126,
      "count": 984,
      "type": "VEC2"
    },
    {
      "bufferView": 35,
      "componentType": 5123,
      "count": 1560,
      "type": "SCALAR"
    }
  ],
  "bufferViews": [
    {
      "buffer": 0,
      "byteLength": 29592,
      "byteOffset": 0,
      "target": 34962
    },
    {
      "buffer": 0,
      "byteLength": 29592,
      "byteOffset": 29592,
      "target": 34962
    },
    {
      "buffer": 0,
      "byteLength": 19728,
      "byteOffset": 59184,
      "target": 34962
    },
    {
      "buffer": 0,
      "byteLength": 22656,
      "byteOffset": 78912,
      "target": 34963
    },
    {
      "buffer": 0,
      "byteLength": 108,
      "byteOffset": 101568,
      "target": 34962
    },
    {
      "buffer": 0,
      "byteLength": 108,
      "byteOffset": 101676,
      "target": 34962
    },
    {
      "buffer": 0,
      "byteLength": 72,
      "byteOffset": 101784,
      "target": 34962
    },
    {
      "buffer": 0,
      "byteLength": 48,
      "byteOffset": 101856,
      "target": 34963
    },
    {
      "buffer": 0,
      "byteLength": 197064,
      "byteOffset": 101904,
      "target": 34962
    },
    {
      "buffer": 0,
      "byteLength": 197064,
      "byteOffset": 298968,
      "target": 34962
    },
    {
      "buffer": 0,
      "byteLength": 131376,
      "byteOffset": 496032,
      "target": 34962
    },
    {
      "buffer": 0,
      "byteLength": 145896,
      "byteOffset": 627408,
      "target": 34963
    },
    {
      "buffer": 0,
      "byteLength": 835800,
      "byteOffset": 773304,
      "target": 34962
    },
    {
      "buffer": 0,
      "byteLength": 835800,
      "byteOffset": 1609104,
      "target": 34962
    },
    {
      "buffer": 0,
      "byteLength": 557200,
      "byteOffset": 2444904,
      "target": 34962
    },
    {
      "buffer": 0,
      "byteLength": 678288,
      "byteOffset": 3002104,
      "target": 34963
    },
    {
      "buffer": 0,
      "byteLength": 123888,
      "byteOffset": 3680392,
      "target": 34962
    },
    {
      "buffer": 0,
      "byteLength": 123888,
      "byteOffset": 3804280,
      "target": 34962
    },
    {
      "buffer": 0,
      "byteLength": 82592,
      "byteOffset": 3928168,
      "target": 34962
    },
    {
      "buffer": 0,
      "byteLength": 90216,
      "byteOffset": 4010760,
      "target": 34963
    },
    {
      "buffer": 0,
      "byteLength": 157536,
      "byteOffset": 4100976,
      "target": 34962
    },
    {
      "buffer": 0,
      "byteLength": 157536,
      "byteOffset": 4258512,
      "target": 34962
    },
    {
      "buffer": 0,
      "byteLength": 105024,
      "byteOffset": 4416048,
      "target": 34962
    },
    {
      "buffer": 0,
      "byteLength": 110352,
      "byteOffset": 4521072,
      "target": 34963
    },
    {
      "buffer": 0,
      "byteLength": 89472,
      "byteOffset": 4631424,
      "target": 34962
    },
    {
      "buffer": 0,
      "byteLength": 89472,
      "byteOffset": 4720896,
      "target": 34962
    },
    {
      "buffer": 0,
      "byteLength": 59648,
      "byteOffset": 4810368,
      "target": 34962
    },
    {
      "buffer": 0,
      "byteLength": 59712,
      "byteOffset": 4870016,
      "target": 34963
    },
    {
      "buffer": 0,
      "byteLength": 32568,
      "byteOffset": 4929728,
      "target": 34962
    },
    {
      "buffer": 0,
      "byteLength": 32568,
      "byteOffset": 4962296,
      "target": 34962
    },
    {
      "buffer": 0,
      "byteLength": 21712,
      "byteOffset": 4994864,
      "target": 34962
    },
    {
      "buffer": 0,
      "byteLength": 26160,
      "byteOffset": 5016576,
      "target": 34963
    },
    {
      "buffer": 0,
      "byteLength": 11808,
      "byteOffset": 5042736,
      "target": 34962
    },
    {
      "buffer": 0,
      "byteLength": 11808,
      "byteOffset": 5054544,
      "target": 34962
    },
    {
      "buffer": 0,
      "byteLength": 7872,
      "byteOffset": 5066352,
      "target": 34962
    },
    {
      "buffer": 0,
      "byteLength": 3120,
      "byteOffset": 5074224,
      "target": 34963
    }
  ],
  "samplers": [
    {
      "magFilter": 9729,
      "minFilter": 9987
    }
  ],
  "buffers": [
    {
      "uri": "laptop_data.bin",
      "byteLength": 5077344
    }
  ]
}